# xmcd
#
# Track frame offsets:
#	150
#	13755
#	54293
#	132194
#	187530
#	234754
#	273968
#	312375
#	316048
#
# Disc length: 4233 seconds
#
# Revision: 1
# Processed by: cddbd v1.5.1PL0 Copyright (c) Steve Scherf et al.
# Submitted via: CDex 1.50Beta5
#
DISCID=62108709
DTITLE=中川亜紀子 - アニラジグランプリ スペシャルCd'98
DYEAR=1998
DGENRE=Unclassifiable
TTITLE0=中川亜紀子/オープニング・トーク
TTITLE1=中川亜紀子/日本各地のアニラジ紹介
TTITLE2=中川亜紀子・佐藤卓矢/アニラジグランプリ・ラジオCmコピー大賞作品展
TTITLE3=中川亜紀子/出張版『中川亜紀子 Lucky Farm』'98 特別番長
TTITLE4=永野愛/アニラジ界のNew Face／ゲスト；永野愛
TTITLE5=川澄綾子/アニラジ界のNew Face／ゲスト；川澄綾子
TTITLE6=LAMUSE/アニラジ界のNew Face／ゲスト；Lamuse
TTITLE7=中川亜紀子/エンディング・トーク
TTITLE8=中川亜紀子/ボーナス・トーク
EXTD=
EXTT0=
EXTT1=
EXTT2=
EXTT3=
EXTT4=
EXTT5=
EXTT6=
EXTT7=
EXTT8=
PLAYORDER=
